<svg width="657" height="200" viewBox="0 0 657 274" fill="none" xmlns="http://www.w3.org/2000/svg">
<g clip-path="url(#clip0_5_2)">
<path d="M242.875 160.391H169.859L177.078 150.359C186.453 137.422 185.187 126.922 184.016 117.656C183.33 113.879 183.156 110.027 183.5 106.203C185.219 102.062 207.562 72.7656 227.906 47.0625C228.231 46.7559 228.486 46.3832 228.655 45.9696C228.823 45.556 228.901 45.111 228.883 44.6648C228.865 44.2185 228.752 43.7813 228.55 43.3826C228.349 42.9838 228.065 42.6329 227.717 42.3533C227.368 42.0738 226.964 41.8721 226.531 41.762C226.098 41.6518 225.647 41.6357 225.207 41.7148C224.768 41.7938 224.35 41.9662 223.983 42.2202C223.616 42.4743 223.307 42.8041 223.078 43.1875C206.344 64.3281 178.156 100.484 177.422 105.031C176.913 109.496 177.045 114.01 177.812 118.437C178.812 126.953 179.984 135.75 172.016 146.687L162.172 160.375H155.375L165.141 146.828C166.625 144.8 167.243 142.265 166.859 139.781C166.67 138.555 166.238 137.379 165.59 136.32C164.942 135.262 164.091 134.343 163.085 133.616C162.079 132.889 160.939 132.37 159.731 132.087C158.523 131.804 157.271 131.764 156.047 131.969C154.805 132.159 153.613 132.594 152.54 133.249C151.467 133.903 150.535 134.764 149.797 135.781L131.937 160.391H123.312L144.141 131.625C145.614 129.592 146.219 127.058 145.824 124.579C145.428 122.1 144.064 119.879 142.031 118.406C139.999 116.933 137.464 116.328 134.985 116.723C132.506 117.119 130.286 118.483 128.812 120.516L99.9531 160.391H93.2031L126.875 113.875C134.562 103.312 143.078 101.687 151.328 100.125C156.105 99.4965 160.736 98.0426 165.016 95.8281C169.25 93.2968 192.094 60.75 201.719 46.9062C202.141 46.2259 202.286 45.4095 202.124 44.6254C201.962 43.8413 201.505 43.1494 200.847 42.6924C200.19 42.2354 199.382 42.0481 198.59 42.1693C197.799 42.2905 197.084 42.7109 196.594 43.3437C183.953 61.5469 164.75 88.2031 161.844 90.4375C158.175 92.2692 154.224 93.4683 150.156 93.9843C141.609 95.5468 130.969 97.625 121.812 110.203L85.4843 160.391H49.125C48.2962 160.391 47.5013 160.72 46.9153 161.306C46.3292 161.892 46 162.687 46 163.516V169.344C46.0207 188.607 53.6821 207.075 67.3033 220.696C80.9245 234.318 99.3929 241.979 118.656 242H173.344C192.607 241.979 211.075 234.318 224.697 220.696C238.318 207.075 245.979 188.607 246 169.344V163.516C246 162.687 245.671 161.892 245.085 161.306C244.499 160.72 243.704 160.391 242.875 160.391ZM154.828 139.406C155.076 139.062 155.39 138.771 155.751 138.549C156.112 138.326 156.513 138.177 156.931 138.109C157.35 138.042 157.778 138.057 158.19 138.155C158.603 138.253 158.992 138.431 159.336 138.68C159.68 138.928 159.971 139.241 160.194 139.602C160.416 139.963 160.565 140.364 160.633 140.783C160.7 141.202 160.685 141.629 160.587 142.042C160.489 142.454 160.311 142.844 160.062 143.187L147.562 160.391H139.656L154.828 139.406ZM133.906 124.187C134.152 123.848 134.463 123.56 134.821 123.341C135.178 123.121 135.575 122.974 135.989 122.908C136.404 122.842 136.827 122.858 137.235 122.956C137.643 123.053 138.028 123.23 138.367 123.476C138.707 123.723 138.994 124.033 139.214 124.391C139.434 124.748 139.58 125.145 139.646 125.56C139.713 125.974 139.696 126.397 139.599 126.805C139.501 127.213 139.324 127.598 139.078 127.937L115.641 160.375H107.672L133.906 124.187ZM239.75 169.344C239.729 186.949 232.726 203.828 220.277 216.277C207.828 228.726 190.949 235.729 173.344 235.75H118.656C101.051 235.729 84.1719 228.726 71.7228 216.277C59.2736 203.828 52.2707 186.949 52.25 169.344V166.641H239.75V169.344ZM46 123.594C46 124.422 46.3292 125.217 46.9153 125.803C47.5013 126.389 48.2962 126.719 49.125 126.719C49.9538 126.719 50.7486 126.389 51.3347 125.803C51.9207 125.217 52.25 124.422 52.25 123.594C52.25 118.062 54.1562 115.437 56.3594 112.312C59.8306 108.14 61.6978 102.865 61.625 97.4374C61.7053 91.9995 59.8376 86.7121 56.3594 82.5312C54.1562 79.5 52.25 76.8125 52.25 71.2812C52.25 65.75 54.1562 63.0937 56.3594 60.0312C59.8376 55.8503 61.7053 50.563 61.625 45.125C61.625 44.2962 61.2957 43.5013 60.7097 42.9153C60.1236 42.3292 59.3288 42 58.5 42C57.6712 42 56.8763 42.3292 56.2903 42.9153C55.7042 43.5013 55.375 44.2962 55.375 45.125C55.375 50.6562 53.4687 53.3125 51.2656 56.375C47.7874 60.5559 45.9196 65.8432 46 71.2812C45.9234 76.7139 47.7909 81.995 51.2656 86.1718C53.4687 89.25 55.375 91.9062 55.375 97.4374C55.375 102.969 53.4687 105.625 51.2656 108.703C47.7909 112.88 45.9234 118.161 46 123.594Z" fill="#E9E9E9"/>
<path d="M71 97.4375C71.0681 101.485 69.6569 105.419 67.0312 108.5C66.7808 108.833 66.5994 109.212 66.4977 109.616C66.396 110.02 66.376 110.44 66.439 110.852C66.502 111.263 66.6466 111.658 66.8644 112.013C67.0822 112.368 67.3688 112.676 67.7073 112.919C68.0458 113.162 68.4293 113.334 68.8354 113.426C69.2416 113.519 69.662 113.529 70.0722 113.456C70.4823 113.384 70.8738 113.23 71.2236 113.004C71.5734 112.778 71.8746 112.485 72.1093 112.141C75.5079 108.002 77.3293 102.792 77.25 97.4375C77.3303 91.9995 75.4626 86.7122 71.9843 82.5312C69.8437 79.5 67.875 76.8125 67.875 71.2812C67.875 65.75 69.7812 63.0937 71.9843 60.0312C75.4626 55.8503 77.3303 50.563 77.25 45.125C77.25 44.2962 76.9207 43.5013 76.3347 42.9153C75.7486 42.3292 74.9538 42 74.125 42C73.2962 42 72.5013 42.3292 71.9153 42.9153C71.3292 43.5013 71 44.2962 71 45.125C71 50.6562 69.0937 53.3125 66.8906 56.375C63.4124 60.5559 61.5446 65.8432 61.625 71.2812C61.5484 76.7139 63.4159 81.995 66.8906 86.1719C69.1719 89.25 71 91.9062 71 97.4375ZM126.234 86.1562L143.844 88.9844H144.344C144.541 89.0032 144.74 89.0032 144.937 88.9844H145.078L145.5 88.8594L145.703 88.7656L146.031 88.5937L146.219 88.4531L146.516 88.2031L146.609 88.1094C146.694 88.0102 146.772 87.9058 146.844 87.7969L146.953 87.625C147.017 87.514 147.075 87.3992 147.125 87.2812L147.203 87.0937C147.242 86.9708 147.273 86.8456 147.297 86.7187C147.297 86.7187 147.297 86.5781 147.297 86.5156L150.125 68.9062C150.25 68.0903 150.047 67.258 149.56 66.5911C149.074 65.9243 148.343 65.477 147.528 65.347C146.713 65.2169 145.879 65.4147 145.21 65.8972C144.54 66.3796 144.088 67.1075 143.953 67.9219L142.25 79.25C134.187 70.1562 131.312 61.5 134.437 55.4687C138.922 46.875 156.781 45.875 176.89 53.0625C177.672 53.3422 178.532 53.3002 179.282 52.9456C180.032 52.5911 180.611 51.953 180.89 51.1719C181.17 50.3907 181.128 49.5305 180.774 48.7803C180.419 48.0302 179.781 47.4516 179 47.1719C155.187 38.6719 135.062 40.8281 128.812 52.5625C124.656 60.4687 127.25 70.875 135.812 81.375L127.25 79.9844C126.434 79.8593 125.602 80.0622 124.935 80.5488C124.268 81.0353 123.821 81.7659 123.691 82.5811C123.561 83.3963 123.758 84.2298 124.241 84.8997C124.723 85.5695 125.451 86.0212 126.266 86.1562H126.234ZM225.687 71.8594H224.609L224.297 71.9531L224.031 72.0469L223.75 72.2031L223.5 72.3437C223.367 72.438 223.241 72.5425 223.125 72.6562H223.031C222.851 72.8344 222.694 73.0338 222.562 73.25C222.504 73.3512 222.452 73.4555 222.406 73.5625C222.406 73.6406 222.328 73.7187 222.297 73.7969C222.224 73.9942 222.172 74.1984 222.14 74.4062L219.344 92C219.213 92.8184 219.413 93.6552 219.899 94.3262C220.386 94.9972 221.119 95.4476 221.937 95.5781H222.437C223.186 95.5877 223.914 95.328 224.488 94.8462C225.061 94.3644 225.443 93.6926 225.562 92.9531L227.406 81.5C235.469 90.5937 238.344 99.25 235.219 105.281C230.703 113.859 212.844 114.875 192.75 107.687C192.363 107.549 191.953 107.488 191.542 107.508C191.132 107.528 190.73 107.629 190.358 107.804C189.987 107.98 189.654 108.227 189.378 108.531C189.102 108.836 188.888 109.191 188.75 109.578C188.611 109.965 188.55 110.375 188.57 110.786C188.59 111.196 188.691 111.598 188.867 111.97C189.042 112.341 189.289 112.674 189.594 112.95C189.898 113.226 190.254 113.44 190.64 113.578C199.139 116.788 208.12 118.537 217.203 118.75C228.531 118.75 237.094 115.156 240.734 108.203C244.89 100.297 242.297 89.8906 233.734 79.3906L242.39 80.7812C242.797 80.8486 243.213 80.835 243.614 80.7411C244.015 80.6472 244.394 80.4749 244.728 80.2341C245.062 79.9933 245.346 79.6888 245.562 79.3381C245.778 78.9874 245.923 78.5974 245.988 78.1905C246.052 77.7837 246.036 77.368 245.94 76.9674C245.843 76.5669 245.669 76.1893 245.426 75.8565C245.183 75.5237 244.877 75.2421 244.525 75.0281C244.173 74.8141 243.782 74.6718 243.375 74.6094L225.781 71.7812L225.687 71.8594Z" fill="#E9E9E9"/>
</g>
<path d="M278.61 128.05C273.103 128.05 268.483 125.95 264.75 121.75C261.017 117.55 259.15 111.437 259.15 103.41C259.15 94.45 261.46 86.82 266.08 80.52C268.367 77.4867 271.283 75.0833 274.83 73.31C278.423 71.49 282.553 70.58 287.22 70.58C291.933 70.58 295.503 71.84 297.93 74.36C300.403 76.8333 301.64 79.7733 301.64 83.18C301.64 86.54 300.707 89.2933 298.84 91.44C296.973 93.54 294.547 94.59 291.56 94.59C290.533 94.59 289.343 94.4033 287.99 94.03C288.97 92.8167 289.833 91.09 290.58 88.85C291.327 86.61 291.7 84.4867 291.7 82.48C291.7 80.4733 291.233 78.84 290.3 77.58C289.367 76.32 287.897 75.69 285.89 75.69C282.81 75.69 280.033 77.1133 277.56 79.96C275.087 82.8067 273.243 86.3067 272.03 90.46C270.817 94.6133 270.21 98.9067 270.21 103.34C270.21 109.313 271.377 113.84 273.71 116.92C276.043 120 279.03 121.54 282.67 121.54C284.957 121.54 287.337 120.77 289.81 119.23C292.283 117.69 294.64 115.497 296.88 112.65C298.607 113.023 299.47 113.887 299.47 115.24C297.697 118.46 295.527 121.073 292.96 123.08C290.393 125.087 287.967 126.417 285.68 127.07C283.393 127.723 281.037 128.05 278.61 128.05ZM328.627 91.93C325.593 91.93 322.887 93.9833 320.507 98.09C318.127 102.15 316.937 106.21 316.937 110.27C316.937 118.763 319.13 123.01 323.517 123.01C326.643 123.01 329.187 120.98 331.147 116.92C333.107 112.813 334.087 108.217 334.087 103.13C334.087 95.6633 332.267 91.93 328.627 91.93ZM332.967 86.82C335.767 86.82 338.147 88.1967 340.107 90.95C342.067 93.7033 343.047 97.39 343.047 102.01C343.047 107.19 341.997 111.95 339.897 116.29C337.563 121.19 334.25 124.573 329.957 126.44C327.53 127.513 324.87 128.05 321.977 128.05C317.917 128.05 314.37 126.487 311.337 123.36C308.35 120.187 306.857 115.66 306.857 109.78C306.857 103.853 308.303 98.65 311.197 94.17C314.09 89.6433 317.917 86.7967 322.677 85.63C323.19 85.63 323.657 85.7933 324.077 86.12C324.543 86.4 324.777 86.7033 324.777 87.03C320.063 90.2967 317.24 94.8467 316.307 100.68C317.287 98.0667 318.477 95.8033 319.877 93.89C321.323 91.9767 322.817 90.53 324.357 89.55C327.297 87.73 330.167 86.82 332.967 86.82ZM371.13 91.93C368.096 91.93 365.39 93.9833 363.01 98.09C360.63 102.15 359.44 106.21 359.44 110.27C359.44 118.763 361.633 123.01 366.02 123.01C369.146 123.01 371.69 120.98 373.65 116.92C375.61 112.813 376.59 108.217 376.59 103.13C376.59 95.6633 374.77 91.93 371.13 91.93ZM375.47 86.82C378.27 86.82 380.65 88.1967 382.61 90.95C384.57 93.7033 385.55 97.39 385.55 102.01C385.55 107.19 384.5 111.95 382.4 116.29C380.066 121.19 376.753 124.573 372.46 126.44C370.033 127.513 367.373 128.05 364.48 128.05C360.42 128.05 356.873 126.487 353.84 123.36C350.853 120.187 349.36 115.66 349.36 109.78C349.36 103.853 350.806 98.65 353.7 94.17C356.593 89.6433 360.42 86.7967 365.18 85.63C365.693 85.63 366.16 85.7933 366.58 86.12C367.046 86.4 367.28 86.7033 367.28 87.03C362.566 90.2967 359.743 94.8467 358.81 100.68C359.79 98.0667 360.98 95.8033 362.38 93.89C363.826 91.9767 365.32 90.53 366.86 89.55C369.8 87.73 372.67 86.82 375.47 86.82ZM416.713 86.47C419.186 86.47 421.286 87.38 423.013 89.2C424.74 91.02 425.603 93.3533 425.603 96.2C425.603 99.0467 424.786 101.497 423.153 103.55C421.566 105.557 419.326 107.12 416.433 108.24L417.273 110.83C418.813 115.637 421.053 120.397 423.993 125.11C426.933 129.823 429.313 133.043 431.133 134.77C429.453 135.19 427.96 135.4 426.653 135.4C421.94 135.4 417.81 131.97 414.263 125.11C412.863 122.403 410.81 117.34 408.103 109.92C407.496 109.967 406.61 109.99 405.443 109.99C405.163 109.757 405.023 109.01 405.023 107.75C407.17 107.703 409.083 107.33 410.763 106.63C412.443 105.93 413.75 105.02 414.683 103.9C416.456 101.613 417.343 99.21 417.343 96.69C417.343 95.43 417.063 94.4033 416.503 93.61C415.99 92.77 415.243 92.35 414.263 92.35C412.536 92.35 410.763 93.5867 408.943 96.06C407.17 98.5333 405.653 101.987 404.393 106.42C403.18 110.807 402.573 114.937 402.573 118.81C402.573 122.637 402.713 125.367 402.993 127C401.5 127.093 400.52 127.14 400.053 127.14C397.393 127.14 395.48 126.697 394.313 125.81C393.146 124.877 392.563 123.407 392.563 121.4C392.563 119.393 392.983 115.567 393.823 109.92C396.296 92.56 397.533 79.3767 397.533 70.37C397.533 66.31 397.253 63.58 396.693 62.18C400.193 63.1133 402.573 64.5367 403.833 66.45C405.14 68.3167 405.793 70.9767 405.793 74.43C405.793 76.7633 405.326 81.6633 404.393 89.13C403.506 96.5967 402.9 102.01 402.573 105.37C404.253 95.8033 407.683 89.8067 412.863 87.38C414.17 86.7733 415.453 86.47 416.713 86.47ZM433.948 115.52C433.948 113.56 434.322 110.013 435.068 104.88C435.815 99.7467 436.188 95.7567 436.188 92.91C436.188 90.0633 436.048 87.87 435.768 86.33C436.795 86.2367 437.752 86.19 438.638 86.19C441.345 86.19 443.212 86.6567 444.238 87.59C445.312 88.4767 445.848 90.0167 445.848 92.21C445.848 92.91 445.265 96.5967 444.098 103.27C442.978 109.897 442.395 115.38 442.348 119.72C442.348 124.013 442.628 126.79 443.188 128.05C439.548 127.117 437.098 125.717 435.838 123.85C434.578 121.937 433.948 119.16 433.948 115.52ZM443.468 80.31C438.662 80.31 436.258 78.63 436.258 75.27C436.258 74.0567 436.608 72.4 437.308 70.3C438.615 70.1133 439.758 70.02 440.738 70.02C445.545 70.02 447.948 71.7 447.948 75.06C447.948 76.2733 447.598 77.93 446.898 80.03C445.592 80.2167 444.448 80.31 443.468 80.31ZM481.008 86.61C483.762 86.61 485.722 87.4733 486.888 89.2C488.102 90.88 488.708 93.19 488.708 96.13C488.708 99.0233 488.242 103.107 487.308 108.38C486.422 113.653 485.978 117.503 485.978 119.93C485.978 122.31 486.282 124.06 486.888 125.18C487.495 126.253 488.522 127.187 489.968 127.98C489.362 128.027 488.498 128.05 487.378 128.05C483.458 128.05 480.658 127.443 478.978 126.23C477.345 125.017 476.528 122.893 476.528 119.86C476.528 118.133 476.995 114.773 477.928 109.78C478.862 104.74 479.328 100.983 479.328 98.51C479.328 95.43 478.395 93.89 476.528 93.89C475.455 93.89 474.242 94.52 472.888 95.78C471.535 97.04 470.228 98.7667 468.968 100.96C467.708 103.107 466.658 105.883 465.818 109.29C464.978 112.697 464.558 116.103 464.558 119.51C464.558 122.87 464.698 125.367 464.978 127C463.485 127.093 462.505 127.14 462.038 127.14C459.378 127.14 457.465 126.673 456.298 125.74C455.132 124.807 454.548 123.267 454.548 121.12C454.548 120.187 455.038 116.593 456.018 110.34C456.998 104.087 457.488 99.1167 457.488 95.43C457.488 91.6967 457.092 88.2667 456.298 85.14C459.705 86.2133 462.085 87.7533 463.438 89.76C464.792 91.72 465.468 93.9833 465.468 96.55C465.468 99.07 465.188 102.01 464.628 105.37C466.168 100.143 468.595 95.71 471.908 92.07C475.222 88.43 478.255 86.61 481.008 86.61ZM518.737 87.31C519.623 87.31 520.3 87.3567 520.767 87.45C521.98 87.6833 522.633 88.5467 522.727 90.04C517.64 91.1133 513.58 93.8667 510.547 98.3C507.56 102.733 506.067 107.353 506.067 112.16C506.067 117.76 507.77 120.56 511.177 120.56C513.23 120.56 515.073 119.44 516.707 117.2C519.6 113.14 521.63 106.793 522.797 98.16C523.683 91.3467 525.34 86.96 527.767 85C528.933 84.02 530.38 83.25 532.107 82.69C531.453 87.6367 531.127 91.37 531.127 93.89C531.127 112.557 529.12 126.58 525.107 135.96C521.14 145.34 514.653 150.03 505.647 150.03C502.007 150.03 499.16 149.05 497.107 147.09C495.053 145.177 494.027 143.053 494.027 140.72C494.027 138.433 494.75 136.543 496.197 135.05C497.643 133.603 499.673 132.88 502.287 132.88C503.36 132.88 504.457 133.113 505.577 133.58C503.803 134.747 502.917 136.543 502.917 138.97C502.917 140.603 503.407 142.003 504.387 143.17C505.367 144.383 506.557 144.99 507.957 144.99C509.403 144.99 510.663 144.687 511.737 144.08C512.81 143.52 513.907 142.493 515.027 141C516.147 139.507 517.127 137.64 517.967 135.4C519.88 130.22 520.93 123.15 521.117 114.19C519.763 118.203 517.71 121.423 514.957 123.85C512.203 126.277 509.403 127.49 506.557 127.49C502.963 127.49 500.21 126.137 498.297 123.43C496.43 120.677 495.497 117.177 495.497 112.93C495.497 107.983 496.687 103.387 499.067 99.14C501.727 94.24 505.413 90.8333 510.127 88.92C512.74 87.8467 515.61 87.31 518.737 87.31Z" fill="#7075DE"/>
<path d="M278.61 218.05C273.103 218.05 268.483 215.95 264.75 211.75C261.017 207.55 259.15 201.437 259.15 193.41C259.15 184.45 261.46 176.82 266.08 170.52C268.367 167.487 271.283 165.083 274.83 163.31C278.423 161.49 282.553 160.58 287.22 160.58C291.933 160.58 295.503 161.84 297.93 164.36C300.403 166.833 301.64 169.773 301.64 173.18C301.64 176.54 300.707 179.293 298.84 181.44C296.973 183.54 294.547 184.59 291.56 184.59C290.533 184.59 289.343 184.403 287.99 184.03C288.97 182.817 289.833 181.09 290.58 178.85C291.327 176.61 291.7 174.487 291.7 172.48C291.7 170.473 291.233 168.84 290.3 167.58C289.367 166.32 287.897 165.69 285.89 165.69C282.81 165.69 280.033 167.113 277.56 169.96C275.087 172.807 273.243 176.307 272.03 180.46C270.817 184.613 270.21 188.907 270.21 193.34C270.21 199.313 271.377 203.84 273.71 206.92C276.043 210 279.03 211.54 282.67 211.54C284.957 211.54 287.337 210.77 289.81 209.23C292.283 207.69 294.64 205.497 296.88 202.65C298.607 203.023 299.47 203.887 299.47 205.24C297.697 208.46 295.527 211.073 292.96 213.08C290.393 215.087 287.967 216.417 285.68 217.07C283.393 217.723 281.037 218.05 278.61 218.05ZM317.917 195.37C319.457 190.097 321.86 185.663 325.127 182.07C328.393 178.43 331.427 176.61 334.227 176.61C337.073 176.61 339.08 177.473 340.247 179.2C341.46 180.88 342.067 183.19 342.067 186.13C342.067 189.023 341.6 193.107 340.667 198.38C339.78 203.653 339.337 207.503 339.337 209.93C339.337 212.31 339.64 214.06 340.247 215.18C340.853 216.253 341.88 217.187 343.327 217.98C342.72 218.027 341.857 218.05 340.737 218.05C336.817 218.05 334.017 217.443 332.337 216.23C330.703 215.017 329.887 212.893 329.887 209.86C329.887 208.133 330.353 204.773 331.287 199.78C332.22 194.74 332.687 190.983 332.687 188.51C332.687 185.43 331.753 183.89 329.887 183.89C328.767 183.89 327.53 184.52 326.177 185.78C324.823 187.04 323.517 188.767 322.257 190.96C321.043 193.107 320.017 195.883 319.177 199.29C318.337 202.697 317.917 206.103 317.917 209.51C317.917 212.87 318.057 215.367 318.337 217C316.843 217.093 315.863 217.14 315.397 217.14C312.737 217.14 310.823 216.697 309.657 215.81C308.49 214.877 307.907 213.407 307.907 211.4C307.907 209.393 308.303 205.567 309.097 199.92C311.617 182.56 312.877 169.377 312.877 160.37C312.877 156.31 312.597 153.58 312.037 152.18C315.537 153.113 317.917 154.537 319.177 156.45C320.483 158.317 321.137 160.977 321.137 164.43C321.137 166.763 320.67 171.663 319.737 179.13C318.85 186.597 318.243 192.01 317.917 195.37ZM361.323 194.25C363.003 188.183 365.01 183.727 367.343 180.88C369.723 177.987 371.917 176.54 373.923 176.54C375.977 176.54 377.517 177.31 378.543 178.85C379.57 180.343 380.083 182.303 380.083 184.73C380.083 187.11 379.36 189.303 377.913 191.31C376.513 193.317 374.577 194.32 372.103 194.32C371.45 194.32 370.68 194.133 369.793 193.76C371.24 191.94 371.963 189.747 371.963 187.18C371.963 185.687 371.357 184.94 370.143 184.94C369.257 184.94 368.3 185.57 367.273 186.83C366.247 188.043 365.267 189.747 364.333 191.94C363.4 194.087 362.607 196.863 361.953 200.27C361.347 203.63 361.043 207.223 361.043 211.05C361.043 211.517 361.16 213.5 361.393 217C359.9 217.093 358.943 217.14 358.523 217.14C355.863 217.14 353.95 216.673 352.783 215.74C351.617 214.807 351.033 213.267 351.033 211.12C351.033 210.187 351.523 206.593 352.503 200.34C353.483 194.087 353.973 189.117 353.973 185.43C353.973 181.697 353.577 178.267 352.783 175.14C356.19 176.213 358.57 177.753 359.923 179.76C361.277 181.72 361.953 184.03 361.953 186.69C361.953 189.303 361.743 191.823 361.323 194.25ZM403.106 181.93C400.072 181.93 397.366 183.983 394.986 188.09C392.606 192.15 391.416 196.21 391.416 200.27C391.416 208.763 393.609 213.01 397.996 213.01C401.122 213.01 403.666 210.98 405.626 206.92C407.586 202.813 408.566 198.217 408.566 193.13C408.566 185.663 406.746 181.93 403.106 181.93ZM407.446 176.82C410.246 176.82 412.626 178.197 414.586 180.95C416.546 183.703 417.526 187.39 417.526 192.01C417.526 197.19 416.476 201.95 414.376 206.29C412.042 211.19 408.729 214.573 404.436 216.44C402.009 217.513 399.349 218.05 396.456 218.05C392.396 218.05 388.849 216.487 385.816 213.36C382.829 210.187 381.336 205.66 381.336 199.78C381.336 193.853 382.782 188.65 385.676 184.17C388.569 179.643 392.396 176.797 397.156 175.63C397.669 175.63 398.136 175.793 398.556 176.12C399.022 176.4 399.256 176.703 399.256 177.03C394.542 180.297 391.719 184.847 390.786 190.68C391.766 188.067 392.956 185.803 394.356 183.89C395.802 181.977 397.296 180.53 398.836 179.55C401.776 177.73 404.646 176.82 407.446 176.82ZM451.699 176.61C454.452 176.61 456.412 177.473 457.579 179.2C458.792 180.88 459.399 183.19 459.399 186.13C459.399 189.023 458.932 193.107 457.999 198.38C457.112 203.653 456.669 207.503 456.669 209.93C456.669 212.31 456.972 214.06 457.579 215.18C458.185 216.253 459.212 217.187 460.659 217.98C460.052 218.027 459.189 218.05 458.069 218.05C454.149 218.05 451.349 217.443 449.669 216.23C448.035 215.017 447.219 212.893 447.219 209.86C447.219 208.133 447.685 204.773 448.619 199.78C449.552 194.74 450.019 190.983 450.019 188.51C450.019 185.43 449.085 183.89 447.219 183.89C446.145 183.89 444.932 184.52 443.579 185.78C442.225 187.04 440.919 188.767 439.659 190.96C438.399 193.107 437.349 195.883 436.509 199.29C435.669 202.697 435.249 206.103 435.249 209.51C435.249 212.87 435.389 215.367 435.669 217C434.175 217.093 433.195 217.14 432.729 217.14C430.069 217.14 428.155 216.673 426.989 215.74C425.822 214.807 425.239 213.267 425.239 211.12C425.239 210.187 425.729 206.593 426.709 200.34C427.689 194.087 428.179 189.117 428.179 185.43C428.179 181.697 427.782 178.267 426.989 175.14C430.395 176.213 432.775 177.753 434.129 179.76C435.482 181.72 436.159 183.983 436.159 186.55C436.159 189.07 435.879 192.01 435.319 195.37C436.859 190.143 439.285 185.71 442.599 182.07C445.912 178.43 448.945 176.61 451.699 176.61ZM469.547 205.52C469.547 203.56 469.92 200.013 470.667 194.88C471.414 189.747 471.787 185.757 471.787 182.91C471.787 180.063 471.647 177.87 471.367 176.33C472.394 176.237 473.35 176.19 474.237 176.19C476.944 176.19 478.81 176.657 479.837 177.59C480.91 178.477 481.447 180.017 481.447 182.21C481.447 182.91 480.864 186.597 479.697 193.27C478.577 199.897 477.994 205.38 477.947 209.72C477.947 214.013 478.227 216.79 478.787 218.05C475.147 217.117 472.697 215.717 471.437 213.85C470.177 211.937 469.547 209.16 469.547 205.52ZM479.067 170.31C474.26 170.31 471.857 168.63 471.857 165.27C471.857 164.057 472.207 162.4 472.907 160.3C474.214 160.113 475.357 160.02 476.337 160.02C481.144 160.02 483.547 161.7 483.547 165.06C483.547 166.273 483.197 167.93 482.497 170.03C481.19 170.217 480.047 170.31 479.067 170.31ZM498.757 201.18C498.757 208.973 501.044 212.87 505.617 212.87C507.391 212.87 509.187 212.263 511.007 211.05C512.827 209.837 514.414 208.157 515.767 206.01C517.447 206.383 518.287 207.247 518.287 208.6C516.327 212.007 513.924 214.433 511.077 215.88C508.231 217.327 505.384 218.05 502.537 218.05C498.711 218.05 495.444 216.65 492.737 213.85C490.077 211.003 488.747 206.897 488.747 201.53C488.747 194.67 490.637 188.813 494.417 183.96C498.197 179.06 503.307 176.61 509.747 176.61C513.341 176.61 516.047 177.497 517.867 179.27C519.687 180.997 520.597 183.073 520.597 185.5C520.597 187.88 519.851 189.957 518.357 191.73C516.911 193.503 515.044 194.39 512.757 194.39C511.637 194.39 510.517 194.157 509.397 193.69C510.097 192.897 510.751 191.66 511.357 189.98C511.964 188.253 512.267 186.667 512.267 185.22C512.267 182.373 511.031 180.95 508.557 180.95C505.664 180.95 503.307 183.073 501.487 187.32C499.667 191.567 498.757 196.187 498.757 201.18ZM528.642 215.25C528.082 214.317 527.732 213.43 527.592 212.59C527.452 211.703 527.382 210.35 527.382 208.53C527.382 206.71 528.152 199.547 529.692 187.04C531.278 174.533 532.072 165.947 532.072 161.28C532.072 156.613 531.792 153.58 531.232 152.18C534.732 153.113 537.112 154.537 538.372 156.45C539.678 158.317 540.332 160.977 540.332 164.43C540.332 166.483 539.655 173.157 538.302 184.45C536.948 195.743 536.272 204.843 536.272 211.75C536.272 213.243 536.365 215.343 536.552 218.05C532.305 217.863 529.668 216.93 528.642 215.25ZM563.28 199.78C561.04 199.78 558.846 199.523 556.7 199.01C556.653 199.477 556.63 200.2 556.63 201.18C556.63 205.053 557.353 207.97 558.8 209.93C560.246 211.89 561.973 212.87 563.98 212.87C565.986 212.87 567.9 212.263 569.72 211.05C571.54 209.837 573.126 208.157 574.48 206.01C576.16 206.383 577 207.247 577 208.6C572.893 214.9 567.596 218.05 561.11 218.05C557.19 218.05 553.76 216.557 550.82 213.57C547.88 210.537 546.41 206.337 546.41 200.97C546.41 196.957 547.18 193.153 548.72 189.56C550.26 185.92 552.71 182.863 556.07 180.39C559.43 177.87 563.14 176.61 567.2 176.61C571.306 176.61 574.316 177.543 576.23 179.41C578.143 181.277 579.1 183.727 579.1 186.76C579.1 191.147 577.56 194.413 574.48 196.56C571.446 198.707 567.713 199.78 563.28 199.78ZM566.22 180.95C563.84 180.95 561.833 182.42 560.2 185.36C558.566 188.3 557.493 191.87 556.98 196.07H558.03C562.09 196.07 565.076 195.02 566.99 192.92C568.95 190.82 569.93 188.3 569.93 185.36C569.93 184.147 569.603 183.12 568.95 182.28C568.343 181.393 567.433 180.95 566.22 180.95ZM601.26 180.74C599.953 180.74 598.786 181.183 597.76 182.07C596.733 182.91 596.22 184.123 596.22 185.71C596.22 187.297 596.756 188.79 597.83 190.19C598.95 191.59 600.303 192.827 601.89 193.9C603.476 194.927 605.063 196 606.65 197.12C608.283 198.193 609.706 199.547 610.92 201.18C612.133 202.767 612.81 204.54 612.95 206.5C612.95 209.86 611.503 212.683 608.61 214.97C605.716 217.257 602.123 218.4 597.83 218.4C593.536 218.4 590.153 217.537 587.68 215.81C585.253 214.083 584.04 212.1 584.04 209.86C584.04 207.62 584.716 205.823 586.07 204.47C587.47 203.07 589.196 202.37 591.25 202.37C592.323 202.37 593.326 202.557 594.26 202.93C592.766 204.517 592.02 206.197 592.02 207.97C592.02 209.743 592.51 211.167 593.49 212.24C594.47 213.313 595.8 213.85 597.48 213.85C599.16 213.85 600.56 213.43 601.68 212.59C602.846 211.703 603.43 210.583 603.43 209.23C603.43 207.83 603.033 206.593 602.24 205.52C601.446 204.447 600.443 203.513 599.23 202.72C598.063 201.88 596.78 200.947 595.38 199.92C593.98 198.893 592.673 197.867 591.46 196.84C590.293 195.767 589.313 194.437 588.52 192.85C587.726 191.217 587.33 189.443 587.33 187.53C587.33 184.217 588.683 181.51 591.39 179.41C594.143 177.263 597.55 176.19 601.61 176.19C605.716 176.19 608.703 176.983 610.57 178.57C612.483 180.157 613.44 182.023 613.44 184.17C613.44 186.27 612.763 188.067 611.41 189.56C610.103 191.053 608.4 191.8 606.3 191.8C605.273 191.8 604.106 191.59 602.8 191.17C603.826 190.283 604.62 189.28 605.18 188.16C605.74 186.993 606.02 185.85 606.02 184.73C606.02 183.61 605.553 182.677 604.62 181.93C603.686 181.137 602.566 180.74 601.26 180.74Z" fill="#E4E4E4"/>
<defs>
<clipPath id="clip0_5_2">
<rect width="200" height="200" fill="white" transform="translate(46 42)"/>
</clipPath>
</defs>
</svg>
